# xmcd
#
# Track frame offsets:
#	150
#	20062
#	34462
#	49154
#	63959
#	78051
#	89316
#	101991
#	114741
#	128938
#	145985
#	160010
#	173727
#	187534
#	200442
#	213807
#
# Disc length: 3031 seconds
#
# Revision: 1
# Processed by: cddbd v1.5.2PL0 Copyright (c) Steve Scherf et al.
# Submitted via: audiograbber 1.83.01
#
DISCID=d70bd510
DTITLE=Various Artist - American Songbook (3/10) - Blues In The Night
DYEAR=2016
DGENRE=Blues
TTITLE0=Frank Sinatra -  ONE FOR MY BABY (And One More For The Road)
TTITLE1=Ella Fitzgerald  -  I´VE GOT A CRUSH ON YOU
TTITLE2=Woody Herman and His Orchestra  -  BLUES IN THE NIGHT
TTITLE3=Louis Armstrong  -  I´VE GOT THE WORLD ON A STRING
TTITLE4=BingCrosby  -  OUT OF NOWHERE
TTITLE5=Peggy Lee  -  I´VE GOT YOU UNDER MY SKIN
TTITLE6=Judy Garland  -  OVER THE RAINBOW
TTITLE7=Julie London  -  CRY ME A RIVER
TTITLE8=EtheI Waters  -  STORMY WEATHER
TTITLE9=Johnny Mathis  -  FLY ME TO THE MOON (In Other Words)
TTITLE10=Glenn Miller and His Orchestra  -  THAT OLD BLACK MAGIC
TTITLE11=Benny Goodman Trio  -  PUTTIN´ ON THE RITZ
TTITLE12=Bing Crosby and Jimmy Van Heusen  -  LIKE SOMEONE IN LOVE
TTITLE13=BudPowell  -  AUTUMN IN NEW YORK
TTITLE14=BenBernie  -  SWEET GEORGIA BROWN
TTITLE15=Bing Crosby  -  YOU MUST HAVE BEEN A BEAUTIFUL BABY
EXTD=
EXTT0=
EXTT1=
EXTT2=
EXTT3=
EXTT4=
EXTT5=
EXTT6=
EXTT7=
EXTT8=
EXTT9=
EXTT10=
EXTT11=
EXTT12=
EXTT13=
EXTT14=
EXTT15=
PLAYORDER=
